<mxfile host="www.draw.io" modified="2020-03-12T08:30:24.634Z" agent="Mozilla/5.0 (X11; Linux x86_64) AppleWebKit/537.36 (KHTML, like Gecko) Chrome/79.0.3945.130 Safari/537.36" etag="FaCyeBD0c9tjDDS4gSFd" version="12.8.4" type="github">
  <diagram id="KOXa0zMADq1AXJtGOLKn" name="第 1 页">
    <mxGraphModel dx="1422" dy="790" grid="1" gridSize="10" guides="1" tooltips="1" connect="1" arrows="1" fold="1" page="1" pageScale="1" pageWidth="3300" pageHeight="4681" math="0" shadow="0">
      <root>
        <mxCell id="0" />
        <mxCell id="1" parent="0" />
        <mxCell id="z8PfKemhPcmv9anzVIYK-23" value="" style="rounded=0;whiteSpace=wrap;html=1;" vertex="1" parent="1">
          <mxGeometry x="70" y="10" width="550" height="170" as="geometry" />
        </mxCell>
        <mxCell id="z8PfKemhPcmv9anzVIYK-29" value="" style="group" vertex="1" connectable="0" parent="1">
          <mxGeometry x="70" y="210" width="550" height="170" as="geometry" />
        </mxCell>
        <mxCell id="z8PfKemhPcmv9anzVIYK-12" value="" style="rounded=0;whiteSpace=wrap;html=1;" vertex="1" parent="z8PfKemhPcmv9anzVIYK-29">
          <mxGeometry width="550" height="170" as="geometry" />
        </mxCell>
        <mxCell id="z8PfKemhPcmv9anzVIYK-13" value="ip地址" style="text;html=1;strokeColor=none;fillColor=none;align=center;verticalAlign=middle;whiteSpace=wrap;rounded=0;" vertex="1" parent="z8PfKemhPcmv9anzVIYK-29">
          <mxGeometry x="55" y="50" width="40" height="20" as="geometry" />
        </mxCell>
        <mxCell id="z8PfKemhPcmv9anzVIYK-17" value="数据库" style="text;html=1;strokeColor=none;fillColor=none;align=center;verticalAlign=middle;whiteSpace=wrap;rounded=0;" vertex="1" parent="z8PfKemhPcmv9anzVIYK-29">
          <mxGeometry x="55" y="90" width="40" height="20" as="geometry" />
        </mxCell>
        <mxCell id="z8PfKemhPcmv9anzVIYK-19" value="测试连通" style="rounded=0;whiteSpace=wrap;html=1;" vertex="1" parent="z8PfKemhPcmv9anzVIYK-29">
          <mxGeometry x="55" y="120" width="60" height="30" as="geometry" />
        </mxCell>
        <mxCell id="z8PfKemhPcmv9anzVIYK-20" value="确认添加" style="rounded=0;whiteSpace=wrap;html=1;" vertex="1" parent="z8PfKemhPcmv9anzVIYK-29">
          <mxGeometry x="230" y="120" width="60" height="30" as="geometry" />
        </mxCell>
        <mxCell id="z8PfKemhPcmv9anzVIYK-28" value="库名称" style="text;html=1;strokeColor=none;fillColor=none;align=center;verticalAlign=middle;whiteSpace=wrap;rounded=0;" vertex="1" parent="z8PfKemhPcmv9anzVIYK-29">
          <mxGeometry x="55" y="20" width="40" height="20" as="geometry" />
        </mxCell>
        <mxCell id="z8PfKemhPcmv9anzVIYK-30" value="&lt;table border=&quot;1&quot; width=&quot;100%&quot; cellpadding=&quot;4&quot; style=&quot;width: 100% ; height: 100% ; border-collapse: collapse&quot;&gt;&lt;tbody&gt;&lt;tr style=&quot;background-color: #a7c942 ; color: #ffffff ; border: 1px solid #98bf21&quot;&gt;&lt;th align=&quot;left&quot;&gt;库名称&lt;/th&gt;&lt;th align=&quot;left&quot;&gt;ip地址&lt;/th&gt;&lt;th align=&quot;left&quot;&gt;数据库&lt;/th&gt;&lt;/tr&gt;&lt;tr style=&quot;border: 1px solid #98bf21&quot;&gt;&lt;td&gt;Value 1&lt;/td&gt;&lt;td&gt;Value 2&lt;/td&gt;&lt;td&gt;Value 3&lt;/td&gt;&lt;/tr&gt;&lt;tr style=&quot;background-color: #eaf2d3 ; border: 1px solid #98bf21&quot;&gt;&lt;td&gt;Value 4&lt;/td&gt;&lt;td&gt;Value 5&lt;/td&gt;&lt;td&gt;Value 6&lt;/td&gt;&lt;/tr&gt;&lt;tr style=&quot;border: 1px solid #98bf21&quot;&gt;&lt;td&gt;Value 7&lt;/td&gt;&lt;td&gt;Value 8&lt;/td&gt;&lt;td&gt;Value 9&lt;/td&gt;&lt;/tr&gt;&lt;tr style=&quot;background-color: #eaf2d3 ; border: 1px solid #98bf21&quot;&gt;&lt;td&gt;Value 10&lt;/td&gt;&lt;td&gt;Value 11&lt;/td&gt;&lt;td&gt;Value 12&lt;/td&gt;&lt;/tr&gt;&lt;/tbody&gt;&lt;/table&gt;" style="text;html=1;strokeColor=#c0c0c0;fillColor=#ffffff;overflow=fill;rounded=0;" vertex="1" parent="1">
          <mxGeometry x="100" y="30" width="490" height="140" as="geometry" />
        </mxCell>
        <mxCell id="z8PfKemhPcmv9anzVIYK-31" value="" style="endArrow=none;dashed=1;html=1;" edge="1" parent="1">
          <mxGeometry width="50" height="50" relative="1" as="geometry">
            <mxPoint x="790" y="730" as="sourcePoint" />
            <mxPoint x="790" y="10" as="targetPoint" />
          </mxGeometry>
        </mxCell>
        <mxCell id="z8PfKemhPcmv9anzVIYK-35" value="" style="group" vertex="1" connectable="0" parent="1">
          <mxGeometry x="70" y="410" width="560" height="330" as="geometry" />
        </mxCell>
        <mxCell id="z8PfKemhPcmv9anzVIYK-18" value="" style="group" vertex="1" connectable="0" parent="z8PfKemhPcmv9anzVIYK-35">
          <mxGeometry width="560" height="330" as="geometry" />
        </mxCell>
        <mxCell id="z8PfKemhPcmv9anzVIYK-2" value="" style="rounded=0;whiteSpace=wrap;html=1;" vertex="1" parent="z8PfKemhPcmv9anzVIYK-18">
          <mxGeometry width="560" height="330" as="geometry" />
        </mxCell>
        <mxCell id="z8PfKemhPcmv9anzVIYK-3" value="输入命令" style="rounded=0;whiteSpace=wrap;html=1;align=left;" vertex="1" parent="z8PfKemhPcmv9anzVIYK-18">
          <mxGeometry x="130" y="75" width="260" height="30" as="geometry" />
        </mxCell>
        <mxCell id="z8PfKemhPcmv9anzVIYK-4" value="命令" style="text;html=1;strokeColor=none;fillColor=none;align=center;verticalAlign=middle;whiteSpace=wrap;rounded=0;" vertex="1" parent="z8PfKemhPcmv9anzVIYK-18">
          <mxGeometry x="40" y="80" width="40" height="20" as="geometry" />
        </mxCell>
        <mxCell id="z8PfKemhPcmv9anzVIYK-5" value="选择库" style="text;html=1;strokeColor=none;fillColor=none;align=center;verticalAlign=middle;whiteSpace=wrap;rounded=0;" vertex="1" parent="z8PfKemhPcmv9anzVIYK-18">
          <mxGeometry x="40" y="30" width="40" height="20" as="geometry" />
        </mxCell>
        <mxCell id="z8PfKemhPcmv9anzVIYK-6" value="下拉选择库" style="rounded=0;whiteSpace=wrap;html=1;align=left;" vertex="1" parent="z8PfKemhPcmv9anzVIYK-18">
          <mxGeometry x="130" y="25" width="260" height="30" as="geometry" />
        </mxCell>
        <mxCell id="z8PfKemhPcmv9anzVIYK-7" value="输出结果" style="text;html=1;strokeColor=none;fillColor=none;align=center;verticalAlign=middle;whiteSpace=wrap;rounded=0;" vertex="1" parent="z8PfKemhPcmv9anzVIYK-18">
          <mxGeometry x="25" y="130" width="70" height="20" as="geometry" />
        </mxCell>
        <mxCell id="z8PfKemhPcmv9anzVIYK-9" value="" style="rounded=0;whiteSpace=wrap;html=1;" vertex="1" parent="z8PfKemhPcmv9anzVIYK-18">
          <mxGeometry x="130" y="140" width="260" height="170" as="geometry" />
        </mxCell>
        <mxCell id="z8PfKemhPcmv9anzVIYK-11" value="执行" style="rounded=0;whiteSpace=wrap;html=1;align=center;" vertex="1" parent="z8PfKemhPcmv9anzVIYK-18">
          <mxGeometry x="410" y="75" width="50" height="30" as="geometry" />
        </mxCell>
        <mxCell id="z8PfKemhPcmv9anzVIYK-34" value="转JSON" style="rounded=0;whiteSpace=wrap;html=1;align=center;" vertex="1" parent="z8PfKemhPcmv9anzVIYK-18">
          <mxGeometry x="410" y="140" width="50" height="30" as="geometry" />
        </mxCell>
        <mxCell id="z8PfKemhPcmv9anzVIYK-48" value="" style="rounded=0;whiteSpace=wrap;html=1;" vertex="1" parent="1">
          <mxGeometry x="860" y="270" width="560" height="330" as="geometry" />
        </mxCell>
        <mxCell id="z8PfKemhPcmv9anzVIYK-37" value="" style="group" vertex="1" connectable="0" parent="1">
          <mxGeometry x="860" y="30" width="550" height="170" as="geometry" />
        </mxCell>
        <mxCell id="z8PfKemhPcmv9anzVIYK-38" value="" style="rounded=0;whiteSpace=wrap;html=1;" vertex="1" parent="z8PfKemhPcmv9anzVIYK-37">
          <mxGeometry width="550" height="170" as="geometry" />
        </mxCell>
        <mxCell id="z8PfKemhPcmv9anzVIYK-39" value="ip地址" style="text;html=1;strokeColor=none;fillColor=none;align=center;verticalAlign=middle;whiteSpace=wrap;rounded=0;" vertex="1" parent="z8PfKemhPcmv9anzVIYK-37">
          <mxGeometry x="55" y="50" width="40" height="20" as="geometry" />
        </mxCell>
        <mxCell id="z8PfKemhPcmv9anzVIYK-41" value="测试连通" style="rounded=0;whiteSpace=wrap;html=1;" vertex="1" parent="z8PfKemhPcmv9anzVIYK-37">
          <mxGeometry x="55" y="120" width="60" height="30" as="geometry" />
        </mxCell>
        <mxCell id="z8PfKemhPcmv9anzVIYK-42" value="保存" style="rounded=0;whiteSpace=wrap;html=1;" vertex="1" parent="z8PfKemhPcmv9anzVIYK-37">
          <mxGeometry x="230" y="120" width="60" height="30" as="geometry" />
        </mxCell>
        <mxCell id="z8PfKemhPcmv9anzVIYK-43" value="库名称" style="text;html=1;strokeColor=none;fillColor=none;align=center;verticalAlign=middle;whiteSpace=wrap;rounded=0;" vertex="1" parent="z8PfKemhPcmv9anzVIYK-37">
          <mxGeometry x="55" y="20" width="40" height="20" as="geometry" />
        </mxCell>
        <mxCell id="z8PfKemhPcmv9anzVIYK-57" value="tree" style="rounded=0;whiteSpace=wrap;html=1;" vertex="1" parent="1">
          <mxGeometry x="860" y="270" width="110" height="330" as="geometry" />
        </mxCell>
        <mxCell id="z8PfKemhPcmv9anzVIYK-58" value="" style="rounded=0;whiteSpace=wrap;html=1;" vertex="1" parent="1">
          <mxGeometry x="1090" y="320" width="180" height="75" as="geometry" />
        </mxCell>
        <mxCell id="z8PfKemhPcmv9anzVIYK-59" value="config" style="text;html=1;strokeColor=none;fillColor=none;align=center;verticalAlign=middle;whiteSpace=wrap;rounded=0;" vertex="1" parent="1">
          <mxGeometry x="990" y="320" width="40" height="20" as="geometry" />
        </mxCell>
        <mxCell id="z8PfKemhPcmv9anzVIYK-60" value="" style="endArrow=none;dashed=1;html=1;" edge="1" parent="1">
          <mxGeometry width="50" height="50" relative="1" as="geometry">
            <mxPoint x="1530" y="730" as="sourcePoint" />
            <mxPoint x="1530" y="10" as="targetPoint" />
          </mxGeometry>
        </mxCell>
        <mxCell id="z8PfKemhPcmv9anzVIYK-61" value="zookeeper" style="text;html=1;strokeColor=#9673a6;fillColor=#e1d5e7;align=center;verticalAlign=middle;whiteSpace=wrap;rounded=0;fontSize=19;" vertex="1" parent="1">
          <mxGeometry x="1430" y="100" width="90" height="50" as="geometry" />
        </mxCell>
        <mxCell id="z8PfKemhPcmv9anzVIYK-62" value="Redis" style="text;html=1;strokeColor=#6c8ebf;fillColor=#dae8fc;align=center;verticalAlign=middle;whiteSpace=wrap;rounded=0;fontSize=22;" vertex="1" parent="1">
          <mxGeometry x="640" y="90" width="100" height="70" as="geometry" />
        </mxCell>
      </root>
    </mxGraphModel>
  </diagram>
</mxfile>
